<?xml version="1.0" encoding="UTF-8" standalone="no"?>
<svg
   width="900px"
   height="900px"
   viewBox="0 0 900 900"
   version="1.1"
   xml:space="preserve"
   id="SVGRoot"
   inkscape:version="1.3.2 (091e20e, 2023-11-25, custom)"
   sodipodi:docname="agritech logo.svg"
   xmlns:inkscape="http://www.inkscape.org/namespaces/inkscape"
   xmlns:sodipodi="http://sodipodi.sourceforge.net/DTD/sodipodi-0.dtd"
   xmlns="http://www.w3.org/2000/svg"
   xmlns:svg="http://www.w3.org/2000/svg"><sodipodi:namedview
   pagecolor="#a9a9a9"
   bordercolor="#292929"
   borderopacity="1"
   inkscape:showpageshadow="2"
   inkscape:pageopacity="0.0"
   inkscape:pagecheckerboard="0"
   inkscape:deskcolor="#232323"
   id="namedview1"
   inkscape:zoom="0.61125453"
   inkscape:cx="582.40877"
   inkscape:cy="352.55363"
   inkscape:window-width="1920"
   inkscape:window-height="991"
   inkscape:window-x="-9"
   inkscape:window-y="-9"
   inkscape:window-maximized="1"
   inkscape:current-layer="SVGRoot"
   showguides="false" /><defs
   id="defs2"><linearGradient
     id="swatch324"
     inkscape:swatch="solid"><stop
       style="stop-color:#ffffff;stop-opacity:1;"
       offset="0"
       id="stop324" /></linearGradient><inkscape:path-effect
     effect="bspline"
     id="path-effect3"
     is_visible="true"
     lpeversion="1.3"
     weight="33.333333"
     steps="2"
     helper_size="0"
     apply_no_weight="true"
     apply_with_weight="true"
     only_selected="false"
     uniform="false" /><meshgradient
     inkscape:collect="always"
     id="meshgradient328"
     gradientUnits="userSpaceOnUse"
     x="0"
     y="0"><meshrow
       id="meshrow328"><meshpatch
         id="meshpatch328"><stop
           path="c 300,0  600,0  900,0"
           style="stop-color:#ffffff;stop-opacity:1"
           id="stop329" /><stop
           path="c 0,300  0,600  0,900"
           style="stop-color:#00ff1b;stop-opacity:1"
           id="stop330" /><stop
           path="c -300,0  -600,0  -900,0"
           style="stop-color:#ffffff;stop-opacity:1"
           id="stop331" /><stop
           path="c 0,-300  0,-600  0,-900"
           style="stop-color:#00ff1b;stop-opacity:1"
           id="stop332" /></meshpatch></meshrow></meshgradient></defs>

<style
   type="text/css"
   id="style1">
g.prefab path {
  vector-effect:non-scaling-stroke;
  -inkscape-stroke:hairline;
  fill: none;
  fill-opacity: 1;
  stroke-opacity: 1;
  stroke: #00349c;
}
</style>
<g
   inkscape:label="Target"
   style="display:none;fill:#ffffff;stroke:#000000;stroke-width:2"
   class="prefab"
   id="g2"
   transform="translate(0.1464475,-1.5e-5)">
  <path
   d="M 849.67791,50.000002 H 49.853552 L 849.67791,850.00003 Z M 451.83392,50 H 850.14645 V 850 H 451.83392 Z M 50.322079,450 H 850.14642 V 850 H 50.322079 Z m -1e-6,-399.999998 H 850.14643 L 50.322078,850.00003 Z"
   id="path1"
   style="display:inline" />
  <path
   d="M 450,50 A 400,400 0 0 0 50,450 400,400 0 0 0 450,850 400,400 0 0 0 850,450 400,400 0 0 0 450,50 Z m 0,100 A 300,300 0 0 1 750,450 300,300 0 0 1 450,750 300,300 0 0 1 150,450 300,300 0 0 1 450,150 Z m 0,100 A 200,200 0 0 0 250,450 200,200 0 0 0 450,650 200,200 0 0 0 650,450 200,200 0 0 0 450,250 Z m 0,100 A 100,100 0 0 1 550,450 100,100 0 0 1 450,550 100,100 0 0 1 350,450 100,100 0 0 1 450,350 Z"
   id="path2"
   style="display:inline" />
</g>
<g
   id="g324"
   inkscape:label="logo"><g
     id="g5"
     inkscape:label="top"
     style="display:inline;fill:#ffffff;fill-opacity:0;stroke-width:10;stroke-dasharray:none"><path
       style="display:inline;fill:#ffffff;fill-opacity:0;stroke:#000000;stroke-width:9.2382;stroke-linejoin:round;stroke-dasharray:none;stroke-opacity:1"
       id="path3"
       sodipodi:type="arc"
       sodipodi:cx="450"
       sodipodi:cy="450.38089"
       sodipodi:rx="369.00031"
       sodipodi:ry="369.52786"
       sodipodi:start="3.1415927"
       sodipodi:end="6.2831853"
       sodipodi:arc-type="slice"
       d="M 80.999695,450.38089 A 369.00031,369.52786 0 0 1 450,80.853027 369.00031,369.52786 0 0 1 819.00031,450.38089 H 450 Z"
       inkscape:label="crops background"
       clip-path="none"
       sodipodi:insensitive="true" /><path
       id="ellipse38"
       style="display:inline;fill-opacity:0;stroke:#000000;stroke-width:2.90854;stroke-linejoin:round;stroke-dasharray:none;stroke-opacity:0.988938;fill:#000000"
       d="m 448.60411,313.06291 a 2.5837009,10.994053 0 0 0 -2.58328,10.99426 2.5837009,10.994053 0 0 0 2.58339,10.99443 2.5837009,10.994053 0 0 0 2.58328,-10.99427 2.5837009,10.994053 0 0 0 -2.58339,-10.99442 z m 74.48517,20.00824 a 10.994053,2.5837008 90 0 0 -2.58417,10.99413 10.994053,2.5837008 90 0 0 2.5843,10.9938 10.994053,2.5837008 90 0 0 2.58328,-10.99427 10.994053,2.5837008 90 0 0 -2.58341,-10.99366 z M 373.76047,315.61057 a 10.994053,2.5837008 90 0 0 -2.58328,10.99427 10.994053,2.5837008 90 0 0 2.58342,10.99365 10.994053,2.5837008 90 0 0 2.58414,-10.99336 10.994053,2.5837008 90 0 0 -2.58428,-10.99456 z m 94.91237,15.6558 a 2.7363585,10.38071 51.75527 0 0 -9.37391,4.8708 2.7363585,10.38071 51.75527 0 0 -6.0733,8.40317 2.7363585,10.38071 51.75527 0 0 10.08905,-4.60489 2.7363585,10.38071 51.75527 0 0 6.0733,-8.40317 2.7363585,10.38071 51.75527 0 0 -0.71514,-0.26591 z m -39.59675,-5.78108 a 11.763914,2.4146168 47.108269 0 0 -0.60115,0.2035 11.763914,2.4146168 47.108269 0 0 6.51869,10.46081 11.763914,2.4146168 47.108269 0 0 9.59009,6.67427 11.763914,2.4146168 47.108269 0 0 -6.51871,-10.46004 11.763914,2.4146168 47.108269 0 0 -8.98892,-6.87854 z M 543.158,351.27461 a 2.7363585,10.38071 51.755269 0 0 -9.37388,4.87004 2.7363585,10.38071 51.755269 0 0 -6.07333,8.40393 2.7363585,10.38071 51.755269 0 0 10.08816,-4.60502 2.7363585,10.38071 51.755269 0 0 6.07422,-8.4038 2.7363585,10.38071 51.755269 0 0 -0.71517,-0.26515 z m -39.59672,-5.78183 a 11.763914,2.4146167 47.108269 0 0 -0.60207,0.20413 11.763914,2.4146167 47.108269 0 0 6.51958,10.46094 11.763914,2.4146167 47.108269 0 0 9.5901,6.67427 11.763914,2.4146167 47.108269 0 0 -6.51869,-10.46081 11.763914,2.4146167 47.108269 0 0 -8.98892,-6.87853 z M 393.8292,333.81403 a 2.7363585,10.38071 51.755269 0 0 -9.37302,4.87094 2.7363585,10.38071 51.755269 0 0 -6.07419,8.40303 2.7363585,10.38071 51.755269 0 0 10.08905,-4.60489 2.7363585,10.38071 51.755269 0 0 6.07332,-8.40393 2.7363585,10.38071 51.755269 0 0 -0.71516,-0.26515 z m -39.59586,-5.78094 a 11.763914,2.4146167 47.108269 0 0 -0.60204,0.20337 11.763914,2.4146167 47.108269 0 0 6.51869,10.46081 11.763914,2.4146167 47.108269 0 0 9.59098,6.6744 11.763914,2.4146167 47.108269 0 0 -6.51871,-10.46004 11.763914,2.4146167 47.108269 0 0 -8.98892,-6.87854 z m 114.0336,18.30967 a 2.7363585,10.38071 51.75527 0 0 -9.37388,4.87003 2.7363585,10.38071 51.75527 0 0 -6.07333,8.40393 2.7363585,10.38071 51.75527 0 0 10.08905,-4.60488 2.7363585,10.38071 51.75527 0 0 6.07332,-8.40394 2.7363585,10.38071 51.75527 0 0 -0.71516,-0.26514 z m -39.59673,-5.78184 a 11.763914,2.4146168 47.108269 0 0 -0.60117,0.20426 11.763914,2.4146168 47.108269 0 0 6.51869,10.46081 11.763914,2.4146168 47.108269 0 0 9.5901,6.67427 11.763914,2.4146168 47.108269 0 0 -6.5187,-10.46081 11.763914,2.4146168 47.108269 0 0 -8.98892,-6.87853 z m 114.0819,25.79008 a 2.7363585,10.38071 51.755269 0 0 -9.37389,4.87004 2.7363585,10.38071 51.755269 0 0 -6.0733,8.40317 2.7363585,10.38071 51.755269 0 0 10.08816,-4.60502 2.7363585,10.38071 51.755269 0 0 6.07419,-8.40304 2.7363585,10.38071 51.755269 0 0 -0.71516,-0.26515 z m -39.59673,-5.78183 a 11.763914,2.4146167 47.108269 0 0 -0.60206,0.20413 11.763914,2.4146167 47.108269 0 0 6.5196,10.46017 11.763914,2.4146167 47.108269 0 0 9.59007,6.67504 11.763914,2.4146167 47.108269 0 0 -6.51869,-10.46081 11.763914,2.4146167 47.108269 0 0 -8.98892,-6.87853 z M 331.07292,334.8722 a 10.994053,2.5837008 90 0 0 -2.58328,10.99427 10.994053,2.5837008 90 0 0 2.58342,10.99366 10.994053,2.5837008 90 0 0 2.58414,-10.99337 10.994053,2.5837008 90 0 0 -2.58428,-10.99456 z m 81.99394,12.50747 a 10.994053,2.5837008 90 0 0 -2.58417,10.99413 10.994053,2.5837008 90 0 0 2.5843,10.9938 10.994053,2.5837008 90 0 0 2.58326,-10.99351 10.994053,2.5837008 90 0 0 -2.58339,-10.99442 z m 66.9516,10.21289 a 10.994053,2.5837008 90 0 0 -2.58328,10.99427 10.994053,2.5837008 90 0 0 2.58341,10.99366 10.994053,2.5837008 90 0 0 2.58415,-10.99337 10.994053,2.5837008 90 0 0 -2.58428,-10.99456 z m 79.55242,13.46652 a 10.994053,2.5837008 90 0 0 -2.58417,10.99413 10.994053,2.5837008 90 0 0 2.5843,10.9938 10.994053,2.5837008 90 0 0 2.58328,-10.99427 10.994053,2.5837008 90 0 0 -2.58341,-10.99366 z M 393.4233,348.89042 a 2.7363585,10.38071 51.755269 0 0 -9.37299,4.87017 2.7363585,10.38071 51.755269 0 0 -6.07422,8.4038 2.7363585,10.38071 51.755269 0 0 10.08907,-4.60565 2.7363585,10.38071 51.755269 0 0 6.0733,-8.40317 2.7363585,10.38071 51.755269 0 0 -0.71516,-0.26515 z m -39.59584,-5.7817 a 11.763914,2.4146167 47.108269 0 0 -0.60206,0.20413 11.763914,2.4146167 47.108269 0 0 6.51869,10.46081 11.763914,2.4146167 47.108269 0 0 9.59099,6.6744 11.763914,2.4146167 47.108269 0 0 -6.5187,-10.46081 11.763914,2.4146167 47.108269 0 0 -8.98892,-6.87853 z m 93.65762,22.5154 -0.88258,32.78189 z m -96.34343,-12.54846 a 2.7363585,10.38071 51.755269 0 0 -9.37389,4.87004 2.7363585,10.38071 51.755269 0 0 -6.07332,8.40393 2.7363585,10.38071 51.755269 0 0 10.08905,-4.60488 2.7363585,10.38071 51.755269 0 0 6.07332,-8.40394 2.7363585,10.38071 51.755269 0 0 -0.71516,-0.26515 z m 81.99393,12.50747 a 2.7363585,10.38071 51.755269 0 0 -9.37388,4.87004 2.7363585,10.38071 51.755269 0 0 -6.07333,8.40393 2.7363585,10.38071 51.755269 0 0 10.08905,-4.60488 2.7363585,10.38071 51.755269 0 0 6.07333,-8.40394 2.7363585,10.38071 51.755269 0 0 -0.71517,-0.26515 z m 66.95161,10.21289 a 2.7363585,10.38071 51.755269 0 0 -9.373,4.87017 2.7363585,10.38071 51.755269 0 0 -6.07421,8.4038 2.7363585,10.38071 51.755269 0 0 10.08905,-4.60488 2.7363585,10.38071 51.755269 0 0 6.07332,-8.40394 2.7363585,10.38071 51.755269 0 0 -0.71516,-0.26515 z m -188.54227,-28.5022 a 11.763914,2.4146167 47.108269 0 0 -0.60117,0.20427 11.763914,2.4146167 47.108269 0 0 6.51869,10.46081 11.763914,2.4146167 47.108269 0 0 9.59098,6.6744 11.763914,2.4146167 47.108269 0 0 -6.51958,-10.46094 11.763914,2.4146167 47.108269 0 0 -8.98892,-6.87854 z m 81.99394,12.50747 a 11.763914,2.4146167 47.108269 0 0 -0.60118,0.20427 11.763914,2.4146167 47.108269 0 0 6.5187,10.46081 11.763914,2.4146167 47.108269 0 0 9.59009,6.67427 11.763914,2.4146167 47.108269 0 0 -6.51869,-10.46081 11.763914,2.4146167 47.108269 0 0 -8.98892,-6.87854 z m 66.95249,10.21303 a 11.763914,2.4146167 47.108269 0 0 -0.60206,0.20413 11.763914,2.4146167 47.108269 0 0 6.51869,10.46081 11.763914,2.4146167 47.108269 0 0 9.59098,6.6744 11.763914,2.4146167 47.108269 0 0 -6.51869,-10.4608 11.763914,2.4146167 47.108269 0 0 -8.98892,-6.87854 z m 119.14737,19.24809 a 2.7363585,10.38071 51.755269 0 0 -9.373,4.87017 2.7363585,10.38071 51.755269 0 0 -6.0733,8.40317 2.7363585,10.38071 51.755269 0 0 10.08816,-4.60503 2.7363585,10.38071 51.755269 0 0 6.07419,-8.40303 2.7363585,10.38071 51.755269 0 0 -0.71605,-0.26528 z m -39.59584,-5.78171 a 11.763914,2.4146167 47.108269 0 0 -0.60206,0.20413 11.763914,2.4146167 47.108269 0 0 6.51871,10.46005 11.763914,2.4146167 47.108269 0 0 9.59098,6.6744 11.763914,2.4146167 47.108269 0 0 -6.51871,-10.46004 11.763914,2.4146167 47.108269 0 0 -8.98892,-6.87854 z m -18.07264,2.15167 -0.88257,32.78189 z m -149.3288,-17.46058 -0.88258,32.78188 z m -21.90569,-0.0197 a 2.7363585,10.38071 51.755269 0 0 -9.37388,4.87004 2.7363585,10.38071 51.755269 0 0 -6.07331,8.40316 2.7363585,10.38071 51.755269 0 0 10.08905,-4.60488 2.7363585,10.38071 51.755269 0 0 6.0733,-8.40317 2.7363585,10.38071 51.755269 0 0 -0.71516,-0.26515 z m 81.99394,12.50747 a 2.7363585,10.38071 51.755269 0 0 -9.37389,4.87003 2.7363585,10.38071 51.755269 0 0 -6.0733,8.40317 2.7363585,10.38071 51.755269 0 0 10.08905,-4.60488 2.7363585,10.38071 51.755269 0 0 6.0733,-8.40317 2.7363585,10.38071 51.755269 0 0 -0.71516,-0.26515 z m 66.9516,10.21289 a 2.7363585,10.38071 51.755269 0 0 -9.373,4.87017 2.7363585,10.38071 51.755269 0 0 -6.07419,8.40304 2.7363585,10.38071 51.755269 0 0 10.08905,-4.60489 2.7363585,10.38071 51.755269 0 0 6.0733,-8.40317 2.7363585,10.38071 51.755269 0 0 -0.71516,-0.26515 z m -188.54226,-28.5022 a 11.763914,2.4146167 47.108269 0 0 -0.60118,0.20427 11.763914,2.4146167 47.108269 0 0 6.51871,10.46004 11.763914,2.4146167 47.108269 0 0 9.59097,6.67517 11.763914,2.4146167 47.108269 0 0 -6.51958,-10.46094 11.763914,2.4146167 47.108269 0 0 -8.98892,-6.87854 z m 81.99393,12.50747 a 11.763914,2.4146167 47.108269 0 0 -0.60117,0.20427 11.763914,2.4146167 47.108269 0 0 6.51871,10.46004 11.763914,2.4146167 47.108269 0 0 9.59007,6.67504 11.763914,2.4146167 47.108269 0 0 -6.51869,-10.46081 11.763914,2.4146167 47.108269 0 0 -8.98892,-6.87854 z m 66.95249,10.21303 a 11.763914,2.4146167 47.108269 0 0 -0.60206,0.20413 11.763914,2.4146167 47.108269 0 0 6.51871,10.46004 11.763914,2.4146167 47.108269 0 0 9.59096,6.67517 11.763914,2.4146167 47.108269 0 0 -6.51869,-10.4608 11.763914,2.4146167 47.108269 0 0 -8.98892,-6.87854 z m 119.14739,19.24732 a 2.7363585,10.38071 51.755269 0 0 -9.37301,4.87094 2.7363585,10.38071 51.755269 0 0 -6.07331,8.40316 2.7363585,10.38071 51.755269 0 0 10.08816,-4.60502 2.7363585,10.38071 51.755269 0 0 6.07419,-8.40303 2.7363585,10.38071 51.755269 0 0 -0.71603,-0.26605 z m -39.59586,-5.78094 a 11.763914,2.4146167 47.108269 0 0 -0.60206,0.20413 11.763914,2.4146167 47.108269 0 0 6.51872,10.46005 11.763914,2.4146167 47.108269 0 0 9.59098,6.6744 11.763914,2.4146167 47.108269 0 0 -6.51872,-10.46004 11.763914,2.4146167 47.108269 0 0 -8.98892,-6.87854 z m -209.68309,-11.12367 -0.88258,32.78188 z m 81.99393,12.50747 -0.88257,32.78188 z m 66.95161,10.21289 -0.88258,32.78188 z m 79.55242,13.46652 -0.88258,32.78188 z"
       transform="matrix(2.1902673,-0.3875523,0.05896784,2.5406369,-551.52551,-505.49427)" /><path
       style="display:none;fill:#ffffff;fill-opacity:0;stroke:#000000;stroke-width:10;stroke-linejoin:round;stroke-dasharray:none;stroke-opacity:1"
       id="path31"
       sodipodi:type="arc"
       sodipodi:cx="450"
       sodipodi:cy="450"
       sodipodi:rx="399.42892"
       sodipodi:ry="400"
       sodipodi:start="3.1415927"
       sodipodi:end="6.2831853"
       sodipodi:arc-type="slice"
       d="M 50.571075,450 A 399.42892,400 0 0 1 450,50 399.42892,400 0 0 1 849.42892,450 H 450 Z"
       inkscape:label="top circle base" /></g><g
     id="g4"
     inkscape:label="bottom"
     transform="matrix(0.73629099,0,0,0.74399034,121.28918,413.65893)"
     style="display:inline;stroke:#000000;stroke-width:13.5111;stroke-dasharray:none;stroke-opacity:1;fill:#000000;fill-opacity:0"><path
       style="display:none;fill:#000000;fill-opacity:0;stroke:#000000;stroke-width:13.5111;stroke-linejoin:round;stroke-dasharray:none;stroke-opacity:1"
       id="path3-6"
       sodipodi:type="arc"
       sodipodi:cx="448.48709"
       sodipodi:cy="-48.84618"
       sodipodi:rx="540.58148"
       sodipodi:ry="537.60858"
       sodipodi:start="3.1415927"
       sodipodi:end="6.2831853"
       sodipodi:arc-type="slice"
       d="M -92.094391,-48.84618 A 540.58148,537.60858 0 0 1 448.48709,-586.45476 540.58148,537.60858 0 0 1 989.06857,-48.84618 H 448.48709 Z"
       inkscape:label="bottom circle base"
       transform="scale(1,-1)" /><path
       id="path29"
       style="display:inline;fill:#000000;fill-opacity:1;stroke:#000000;stroke-width:3.11256;stroke-dasharray:none;stroke-opacity:1"
       d="M -124.04829,0.04743495 V 4.798953 l 9.70243,2.6955259 1.7496,0.088149 7.79113,-0.5246366 1.74413,13.2496587 -7.66103,1.510078 -1.66814,0.538011 -8.67262,5.115055 2.48397,9.27081 10.06902,0.0924 1.71373,-0.367792 7.389289,-2.522876 5.113839,12.346287 -7.009338,3.441446 -1.47178,0.951398 -7.05372,7.185637 4.79894,8.312117 9.749241,-2.516797 1.560536,-0.798809 6.484703,-4.349682 8.135212,10.602159 -5.879821,5.138156 -1.175721,1.300346 -4.953956,8.766234 6.78684,6.786841 8.766235,-4.953956 1.300345,-1.175721 5.137549,-5.879821 10.602766,8.135211 -4.349681,6.484704 -0.79881,1.560535 -2.516797,9.749249 8.312117,4.79894 7.185638,-7.05372 0.951398,-1.47239 3.441446,-7.008736 12.346287,5.11384 -2.522876,7.389296 -0.367793,1.71373 0.0924,10.06901 9.27081,2.48397 5.115056,-8.67261 0.538011,-1.66814 1.510078,-7.66103 13.2496589,1.74412 -0.5246367,7.79113 0.088149,1.7496 2.695526,9.70183 h 9.5978719 l 2.6955259,-9.70183 0.088149,-1.7496 -0.5246366,-7.79113 13.2496596,-1.74412 1.510078,7.66103 0.538011,1.66814 5.115055,8.67261 9.27081,-2.48397 0.0924,-10.06901 -0.367792,-1.71373 -2.522877,-7.389296 12.346288,-5.11384 3.441446,7.008736 0.951398,1.47239 7.185637,7.05372 8.312117,-4.79894 -2.516797,-9.749249 -0.798809,-1.560535 -4.349682,-6.484704 10.602767,-8.135211 5.137549,5.879821 1.300345,1.175721 8.766234,4.953956 6.786841,-6.786841 -4.953956,-8.766234 -1.175721,-1.300346 -5.879821,-5.138156 8.135211,-10.602159 6.484704,4.349682 1.560536,0.798809 9.749238,2.516797 4.79894,-8.312117 -7.05372,-7.185637 -1.47178,-0.951398 -7.009336,-3.441446 5.11384,-12.346287 7.389286,2.522876 1.71373,0.367792 10.06902,-0.0924 2.48396,-9.27081 -8.67261,-5.115055 -1.66814,-0.538011 -7.66103,-1.510078 1.74413,-13.2496587 7.79113,0.5246366 1.7496,-0.088149 9.70182,-2.6955259 V 0.04743495 L 48.34481,0.08127974 c 0,0 -1.335578,49.13671226 -48.39039062,48.62750326 C -47.100393,48.199574 -48.435973,0.08127974 -48.435973,0.08127974 Z"
       transform="matrix(4.3634773,0,0,4.3183209,446.64036,49.042975)"
       sodipodi:nodetypes="ccccccccccccccccccccccccccccccccccccccccccccccccccccccccccccccccccccccccccccccccccccccccccccccccccczcc" /></g></g><rect
   style="display:none;mix-blend-mode:hard-light;fill:url(#meshgradient328);fill-opacity:1;stroke:#000000;stroke-width:10;stroke-linejoin:round;stroke-dasharray:none;stroke-opacity:1"
   id="rect324"
   width="900"
   height="900"
   x="0"
   y="0" /><script
   id="mesh_polyfill"
   type="text/javascript">
!function(){const t=&quot;http://www.w3.org/2000/svg&quot;,e=&quot;http://www.w3.org/1999/xlink&quot;,s=&quot;http://www.w3.org/1999/xhtml&quot;,r=2;if(document.createElementNS(t,&quot;meshgradient&quot;).x)return;const n=(t,e,s,r)=&gt;{let n=new x(.5*(e.x+s.x),.5*(e.y+s.y)),o=new x(.5*(t.x+e.x),.5*(t.y+e.y)),i=new x(.5*(s.x+r.x),.5*(s.y+r.y)),a=new x(.5*(n.x+o.x),.5*(n.y+o.y)),h=new x(.5*(n.x+i.x),.5*(n.y+i.y)),l=new x(.5*(a.x+h.x),.5*(a.y+h.y));return[[t,o,a,l],[l,h,i,r]]},o=t=&gt;{let e=t[0].distSquared(t[1]),s=t[2].distSquared(t[3]),r=.25*t[0].distSquared(t[2]),n=.25*t[1].distSquared(t[3]),o=e&gt;s?e:s,i=r&gt;n?r:n;return 18*(o&gt;i?o:i)},i=(t,e)=&gt;Math.sqrt(t.distSquared(e)),a=(t,e)=&gt;t.scale(2/3).add(e.scale(1/3)),h=t=&gt;{let e,s,r,n,o,i,a,h=new g;return t.match(/(\w+\(\s*[^)]+\))+/g).forEach(t=&gt;{let l=t.match(/[\w.-]+/g),d=l.shift();switch(d){case&quot;translate&quot;:2===l.length?e=new g(1,0,0,1,l[0],l[1]):(console.error(&quot;mesh.js: translate does not have 2 arguments!&quot;),e=new g(1,0,0,1,0,0)),h=h.append(e);break;case&quot;scale&quot;:1===l.length?s=new g(l[0],0,0,l[0],0,0):2===l.length?s=new g(l[0],0,0,l[1],0,0):(console.error(&quot;mesh.js: scale does not have 1 or 2 arguments!&quot;),s=new g(1,0,0,1,0,0)),h=h.append(s);break;case&quot;rotate&quot;:if(3===l.length&amp;&amp;(e=new g(1,0,0,1,l[1],l[2]),h=h.append(e)),l[0]){r=l[0]*Math.PI/180;let t=Math.cos(r),e=Math.sin(r);Math.abs(t)&lt;1e-16&amp;&amp;(t=0),Math.abs(e)&lt;1e-16&amp;&amp;(e=0),a=new g(t,e,-e,t,0,0),h=h.append(a)}else console.error(&quot;math.js: No argument to rotate transform!&quot;);3===l.length&amp;&amp;(e=new g(1,0,0,1,-l[1],-l[2]),h=h.append(e));break;case&quot;skewX&quot;:l[0]?(r=l[0]*Math.PI/180,n=Math.tan(r),o=new g(1,0,n,1,0,0),h=h.append(o)):console.error(&quot;math.js: No argument to skewX transform!&quot;);break;case&quot;skewY&quot;:l[0]?(r=l[0]*Math.PI/180,n=Math.tan(r),i=new g(1,n,0,1,0,0),h=h.append(i)):console.error(&quot;math.js: No argument to skewY transform!&quot;);break;case&quot;matrix&quot;:6===l.length?h=h.append(new g(...l)):console.error(&quot;math.js: Incorrect number of arguments for matrix!&quot;);break;default:console.error(&quot;mesh.js: Unhandled transform type: &quot;+d)}}),h},l=t=&gt;{let e=[],s=t.split(/[ ,]+/);for(let t=0,r=s.length-1;t&lt;r;t+=2)e.push(new x(parseFloat(s[t]),parseFloat(s[t+1])));return e},d=(t,e)=&gt;{for(let s in e)t.setAttribute(s,e[s])},c=(t,e,s,r,n)=&gt;{let o,i,a=[0,0,0,0];for(let h=0;h&lt;3;++h)e[h]&lt;t[h]&amp;&amp;e[h]&lt;s[h]||t[h]&lt;e[h]&amp;&amp;s[h]&lt;e[h]?a[h]=0:(a[h]=.5*((e[h]-t[h])/r+(s[h]-e[h])/n),o=Math.abs(3*(e[h]-t[h])/r),i=Math.abs(3*(s[h]-e[h])/n),a[h]&gt;o?a[h]=o:a[h]&gt;i&amp;&amp;(a[h]=i));return a},u=[[1,0,0,0,0,0,0,0,0,0,0,0,0,0,0,0],[0,0,0,0,1,0,0,0,0,0,0,0,0,0,0,0],[-3,3,0,0,-2,-1,0,0,0,0,0,0,0,0,0,0],[2,-2,0,0,1,1,0,0,0,0,0,0,0,0,0,0],[0,0,0,0,0,0,0,0,1,0,0,0,0,0,0,0],[0,0,0,0,0,0,0,0,0,0,0,0,1,0,0,0],[0,0,0,0,0,0,0,0,-3,3,0,0,-2,-1,0,0],[0,0,0,0,0,0,0,0,2,-2,0,0,1,1,0,0],[-3,0,3,0,0,0,0,0,-2,0,-1,0,0,0,0,0],[0,0,0,0,-3,0,3,0,0,0,0,0,-2,0,-1,0],[9,-9,-9,9,6,3,-6,-3,6,-6,3,-3,4,2,2,1],[-6,6,6,-6,-3,-3,3,3,-4,4,-2,2,-2,-2,-1,-1],[2,0,-2,0,0,0,0,0,1,0,1,0,0,0,0,0],[0,0,0,0,2,0,-2,0,0,0,0,0,1,0,1,0],[-6,6,6,-6,-4,-2,4,2,-3,3,-3,3,-2,-1,-2,-1],[4,-4,-4,4,2,2,-2,-2,2,-2,2,-2,1,1,1,1]],f=t=&gt;{let e=[];for(let s=0;s&lt;16;++s){e[s]=0;for(let r=0;r&lt;16;++r)e[s]+=u[s][r]*t[r]}return e},p=(t,e,s)=&gt;{const r=e*e,n=s*s,o=e*e*e,i=s*s*s;return t[0]+t[1]*e+t[2]*r+t[3]*o+t[4]*s+t[5]*s*e+t[6]*s*r+t[7]*s*o+t[8]*n+t[9]*n*e+t[10]*n*r+t[11]*n*o+t[12]*i+t[13]*i*e+t[14]*i*r+t[15]*i*o},y=t=&gt;{let e=[],s=[],r=[];for(let s=0;s&lt;4;++s)e[s]=[],e[s][0]=n(t[0][s],t[1][s],t[2][s],t[3][s]),e[s][1]=[],e[s][1].push(...n(...e[s][0][0])),e[s][1].push(...n(...e[s][0][1])),e[s][2]=[],e[s][2].push(...n(...e[s][1][0])),e[s][2].push(...n(...e[s][1][1])),e[s][2].push(...n(...e[s][1][2])),e[s][2].push(...n(...e[s][1][3]));for(let t=0;t&lt;8;++t){s[t]=[];for(let r=0;r&lt;4;++r)s[t][r]=[],s[t][r][0]=n(e[0][2][t][r],e[1][2][t][r],e[2][2][t][r],e[3][2][t][r]),s[t][r][1]=[],s[t][r][1].push(...n(...s[t][r][0][0])),s[t][r][1].push(...n(...s[t][r][0][1])),s[t][r][2]=[],s[t][r][2].push(...n(...s[t][r][1][0])),s[t][r][2].push(...n(...s[t][r][1][1])),s[t][r][2].push(...n(...s[t][r][1][2])),s[t][r][2].push(...n(...s[t][r][1][3]))}for(let t=0;t&lt;8;++t){r[t]=[];for(let e=0;e&lt;8;++e)r[t][e]=[],r[t][e][0]=s[t][0][2][e],r[t][e][1]=s[t][1][2][e],r[t][e][2]=s[t][2][2][e],r[t][e][3]=s[t][3][2][e]}return r};class x{constructor(t,e){this.x=t||0,this.y=e||0}toString(){return`(x=${this.x}, y=${this.y})`}clone(){return new x(this.x,this.y)}add(t){return new x(this.x+t.x,this.y+t.y)}scale(t){return void 0===t.x?new x(this.x*t,this.y*t):new x(this.x*t.x,this.y*t.y)}distSquared(t){let e=this.x-t.x,s=this.y-t.y;return e*e+s*s}transform(t){let e=this.x*t.a+this.y*t.c+t.e,s=this.x*t.b+this.y*t.d+t.f;return new x(e,s)}}class g{constructor(t,e,s,r,n,o){void 0===t?(this.a=1,this.b=0,this.c=0,this.d=1,this.e=0,this.f=0):(this.a=t,this.b=e,this.c=s,this.d=r,this.e=n,this.f=o)}toString(){return`affine: ${this.a} ${this.c} ${this.e} \n       ${this.b} ${this.d} ${this.f}`}append(t){t instanceof g||console.error(&quot;mesh.js: argument to Affine.append is not affine!&quot;);let e=this.a*t.a+this.c*t.b,s=this.b*t.a+this.d*t.b,r=this.a*t.c+this.c*t.d,n=this.b*t.c+this.d*t.d,o=this.a*t.e+this.c*t.f+this.e,i=this.b*t.e+this.d*t.f+this.f;return new g(e,s,r,n,o,i)}}class w{constructor(t,e){this.nodes=t,this.colors=e}paintCurve(t,e){if(o(this.nodes)&gt;r){const s=n(...this.nodes);let r=[[],[]],o=[[],[]];for(let t=0;t&lt;4;++t)r[0][t]=this.colors[0][t],r[1][t]=(this.colors[0][t]+this.colors[1][t])/2,o[0][t]=r[1][t],o[1][t]=this.colors[1][t];let i=new w(s[0],r),a=new w(s[1],o);i.paintCurve(t,e),a.paintCurve(t,e)}else{let s=Math.round(this.nodes[0].x);if(s&gt;=0&amp;&amp;s&lt;e){let r=4*(~~this.nodes[0].y*e+s);t[r]=Math.round(this.colors[0][0]),t[r+1]=Math.round(this.colors[0][1]),t[r+2]=Math.round(this.colors[0][2]),t[r+3]=Math.round(this.colors[0][3])}}}}class m{constructor(t,e){this.nodes=t,this.colors=e}split(){let t=[[],[],[],[]],e=[[],[],[],[]],s=[[[],[]],[[],[]]],r=[[[],[]],[[],[]]];for(let s=0;s&lt;4;++s){const r=n(this.nodes[0][s],this.nodes[1][s],this.nodes[2][s],this.nodes[3][s]);t[0][s]=r[0][0],t[1][s]=r[0][1],t[2][s]=r[0][2],t[3][s]=r[0][3],e[0][s]=r[1][0],e[1][s]=r[1][1],e[2][s]=r[1][2],e[3][s]=r[1][3]}for(let t=0;t&lt;4;++t)s[0][0][t]=this.colors[0][0][t],s[0][1][t]=this.colors[0][1][t],s[1][0][t]=(this.colors[0][0][t]+this.colors[1][0][t])/2,s[1][1][t]=(this.colors[0][1][t]+this.colors[1][1][t])/2,r[0][0][t]=s[1][0][t],r[0][1][t]=s[1][1][t],r[1][0][t]=this.colors[1][0][t],r[1][1][t]=this.colors[1][1][t];return[new m(t,s),new m(e,r)]}paint(t,e){let s,n=!1;for(let t=0;t&lt;4;++t)if((s=o([this.nodes[0][t],this.nodes[1][t],this.nodes[2][t],this.nodes[3][t]]))&gt;r){n=!0;break}if(n){let s=this.split();s[0].paint(t,e),s[1].paint(t,e)}else{new w([...this.nodes[0]],[...this.colors[0]]).paintCurve(t,e)}}}class b{constructor(t){this.readMesh(t),this.type=t.getAttribute(&quot;type&quot;)||&quot;bilinear&quot;}readMesh(t){let e=[[]],s=[[]],r=Number(t.getAttribute(&quot;x&quot;)),n=Number(t.getAttribute(&quot;y&quot;));e[0][0]=new x(r,n);let o=t.children;for(let t=0,r=o.length;t&lt;r;++t){e[3*t+1]=[],e[3*t+2]=[],e[3*t+3]=[],s[t+1]=[];let r=o[t].children;for(let n=0,o=r.length;n&lt;o;++n){let o=r[n].children;for(let r=0,i=o.length;r&lt;i;++r){let i=r;0!==t&amp;&amp;++i;let h,d=o[r].getAttribute(&quot;path&quot;),c=&quot;l&quot;;null!=d&amp;&amp;(c=(h=d.match(/\s*([lLcC])\s*(.*)/))[1]);let u=l(h[2]);switch(c){case&quot;l&quot;:0===i?(e[3*t][3*n+3]=u[0].add(e[3*t][3*n]),e[3*t][3*n+1]=a(e[3*t][3*n],e[3*t][3*n+3]),e[3*t][3*n+2]=a(e[3*t][3*n+3],e[3*t][3*n])):1===i?(e[3*t+3][3*n+3]=u[0].add(e[3*t][3*n+3]),e[3*t+1][3*n+3]=a(e[3*t][3*n+3],e[3*t+3][3*n+3]),e[3*t+2][3*n+3]=a(e[3*t+3][3*n+3],e[3*t][3*n+3])):2===i?(0===n&amp;&amp;(e[3*t+3][3*n+0]=u[0].add(e[3*t+3][3*n+3])),e[3*t+3][3*n+1]=a(e[3*t+3][3*n],e[3*t+3][3*n+3]),e[3*t+3][3*n+2]=a(e[3*t+3][3*n+3],e[3*t+3][3*n])):(e[3*t+1][3*n]=a(e[3*t][3*n],e[3*t+3][3*n]),e[3*t+2][3*n]=a(e[3*t+3][3*n],e[3*t][3*n]));break;case&quot;L&quot;:0===i?(e[3*t][3*n+3]=u[0],e[3*t][3*n+1]=a(e[3*t][3*n],e[3*t][3*n+3]),e[3*t][3*n+2]=a(e[3*t][3*n+3],e[3*t][3*n])):1===i?(e[3*t+3][3*n+3]=u[0],e[3*t+1][3*n+3]=a(e[3*t][3*n+3],e[3*t+3][3*n+3]),e[3*t+2][3*n+3]=a(e[3*t+3][3*n+3],e[3*t][3*n+3])):2===i?(0===n&amp;&amp;(e[3*t+3][3*n+0]=u[0]),e[3*t+3][3*n+1]=a(e[3*t+3][3*n],e[3*t+3][3*n+3]),e[3*t+3][3*n+2]=a(e[3*t+3][3*n+3],e[3*t+3][3*n])):(e[3*t+1][3*n]=a(e[3*t][3*n],e[3*t+3][3*n]),e[3*t+2][3*n]=a(e[3*t+3][3*n],e[3*t][3*n]));break;case&quot;c&quot;:0===i?(e[3*t][3*n+1]=u[0].add(e[3*t][3*n]),e[3*t][3*n+2]=u[1].add(e[3*t][3*n]),e[3*t][3*n+3]=u[2].add(e[3*t][3*n])):1===i?(e[3*t+1][3*n+3]=u[0].add(e[3*t][3*n+3]),e[3*t+2][3*n+3]=u[1].add(e[3*t][3*n+3]),e[3*t+3][3*n+3]=u[2].add(e[3*t][3*n+3])):2===i?(e[3*t+3][3*n+2]=u[0].add(e[3*t+3][3*n+3]),e[3*t+3][3*n+1]=u[1].add(e[3*t+3][3*n+3]),0===n&amp;&amp;(e[3*t+3][3*n+0]=u[2].add(e[3*t+3][3*n+3]))):(e[3*t+2][3*n]=u[0].add(e[3*t+3][3*n]),e[3*t+1][3*n]=u[1].add(e[3*t+3][3*n]));break;case&quot;C&quot;:0===i?(e[3*t][3*n+1]=u[0],e[3*t][3*n+2]=u[1],e[3*t][3*n+3]=u[2]):1===i?(e[3*t+1][3*n+3]=u[0],e[3*t+2][3*n+3]=u[1],e[3*t+3][3*n+3]=u[2]):2===i?(e[3*t+3][3*n+2]=u[0],e[3*t+3][3*n+1]=u[1],0===n&amp;&amp;(e[3*t+3][3*n+0]=u[2])):(e[3*t+2][3*n]=u[0],e[3*t+1][3*n]=u[1]);break;default:console.error(&quot;mesh.js: &quot;+c+&quot; invalid path type.&quot;)}if(0===t&amp;&amp;0===n||r&gt;0){let e=window.getComputedStyle(o[r]).stopColor.match(/^rgb\s*\(\s*(\d+)\s*,\s*(\d+)\s*,\s*(\d+)\s*\)$/i),a=window.getComputedStyle(o[r]).stopOpacity,h=255;a&amp;&amp;(h=Math.floor(255*a)),e&amp;&amp;(0===i?(s[t][n]=[],s[t][n][0]=Math.floor(e[1]),s[t][n][1]=Math.floor(e[2]),s[t][n][2]=Math.floor(e[3]),s[t][n][3]=h):1===i?(s[t][n+1]=[],s[t][n+1][0]=Math.floor(e[1]),s[t][n+1][1]=Math.floor(e[2]),s[t][n+1][2]=Math.floor(e[3]),s[t][n+1][3]=h):2===i?(s[t+1][n+1]=[],s[t+1][n+1][0]=Math.floor(e[1]),s[t+1][n+1][1]=Math.floor(e[2]),s[t+1][n+1][2]=Math.floor(e[3]),s[t+1][n+1][3]=h):3===i&amp;&amp;(s[t+1][n]=[],s[t+1][n][0]=Math.floor(e[1]),s[t+1][n][1]=Math.floor(e[2]),s[t+1][n][2]=Math.floor(e[3]),s[t+1][n][3]=h))}}e[3*t+1][3*n+1]=new x,e[3*t+1][3*n+2]=new x,e[3*t+2][3*n+1]=new x,e[3*t+2][3*n+2]=new x,e[3*t+1][3*n+1].x=(-4*e[3*t][3*n].x+6*(e[3*t][3*n+1].x+e[3*t+1][3*n].x)+-2*(e[3*t][3*n+3].x+e[3*t+3][3*n].x)+3*(e[3*t+3][3*n+1].x+e[3*t+1][3*n+3].x)+-1*e[3*t+3][3*n+3].x)/9,e[3*t+1][3*n+2].x=(-4*e[3*t][3*n+3].x+6*(e[3*t][3*n+2].x+e[3*t+1][3*n+3].x)+-2*(e[3*t][3*n].x+e[3*t+3][3*n+3].x)+3*(e[3*t+3][3*n+2].x+e[3*t+1][3*n].x)+-1*e[3*t+3][3*n].x)/9,e[3*t+2][3*n+1].x=(-4*e[3*t+3][3*n].x+6*(e[3*t+3][3*n+1].x+e[3*t+2][3*n].x)+-2*(e[3*t+3][3*n+3].x+e[3*t][3*n].x)+3*(e[3*t][3*n+1].x+e[3*t+2][3*n+3].x)+-1*e[3*t][3*n+3].x)/9,e[3*t+2][3*n+2].x=(-4*e[3*t+3][3*n+3].x+6*(e[3*t+3][3*n+2].x+e[3*t+2][3*n+3].x)+-2*(e[3*t+3][3*n].x+e[3*t][3*n+3].x)+3*(e[3*t][3*n+2].x+e[3*t+2][3*n].x)+-1*e[3*t][3*n].x)/9,e[3*t+1][3*n+1].y=(-4*e[3*t][3*n].y+6*(e[3*t][3*n+1].y+e[3*t+1][3*n].y)+-2*(e[3*t][3*n+3].y+e[3*t+3][3*n].y)+3*(e[3*t+3][3*n+1].y+e[3*t+1][3*n+3].y)+-1*e[3*t+3][3*n+3].y)/9,e[3*t+1][3*n+2].y=(-4*e[3*t][3*n+3].y+6*(e[3*t][3*n+2].y+e[3*t+1][3*n+3].y)+-2*(e[3*t][3*n].y+e[3*t+3][3*n+3].y)+3*(e[3*t+3][3*n+2].y+e[3*t+1][3*n].y)+-1*e[3*t+3][3*n].y)/9,e[3*t+2][3*n+1].y=(-4*e[3*t+3][3*n].y+6*(e[3*t+3][3*n+1].y+e[3*t+2][3*n].y)+-2*(e[3*t+3][3*n+3].y+e[3*t][3*n].y)+3*(e[3*t][3*n+1].y+e[3*t+2][3*n+3].y)+-1*e[3*t][3*n+3].y)/9,e[3*t+2][3*n+2].y=(-4*e[3*t+3][3*n+3].y+6*(e[3*t+3][3*n+2].y+e[3*t+2][3*n+3].y)+-2*(e[3*t+3][3*n].y+e[3*t][3*n+3].y)+3*(e[3*t][3*n+2].y+e[3*t+2][3*n].y)+-1*e[3*t][3*n].y)/9}}this.nodes=e,this.colors=s}paintMesh(t,e){let s=(this.nodes.length-1)/3,r=(this.nodes[0].length-1)/3;if(&quot;bilinear&quot;===this.type||s&lt;2||r&lt;2){let n;for(let o=0;o&lt;s;++o)for(let s=0;s&lt;r;++s){let r=[];for(let t=3*o,e=3*o+4;t&lt;e;++t)r.push(this.nodes[t].slice(3*s,3*s+4));let i=[];i.push(this.colors[o].slice(s,s+2)),i.push(this.colors[o+1].slice(s,s+2)),(n=new m(r,i)).paint(t,e)}}else{let n,o,a,h,l,d,u;const x=s,g=r;s++,r++;let w=new Array(s);for(let t=0;t&lt;s;++t){w[t]=new Array(r);for(let e=0;e&lt;r;++e)w[t][e]=[],w[t][e][0]=this.nodes[3*t][3*e],w[t][e][1]=this.colors[t][e]}for(let t=0;t&lt;s;++t)for(let e=0;e&lt;r;++e)0!==t&amp;&amp;t!==x&amp;&amp;(n=i(w[t-1][e][0],w[t][e][0]),o=i(w[t+1][e][0],w[t][e][0]),w[t][e][2]=c(w[t-1][e][1],w[t][e][1],w[t+1][e][1],n,o)),0!==e&amp;&amp;e!==g&amp;&amp;(n=i(w[t][e-1][0],w[t][e][0]),o=i(w[t][e+1][0],w[t][e][0]),w[t][e][3]=c(w[t][e-1][1],w[t][e][1],w[t][e+1][1],n,o));for(let t=0;t&lt;r;++t){w[0][t][2]=[],w[x][t][2]=[];for(let e=0;e&lt;4;++e)n=i(w[1][t][0],w[0][t][0]),o=i(w[x][t][0],w[x-1][t][0]),w[0][t][2][e]=n&gt;0?2*(w[1][t][1][e]-w[0][t][1][e])/n-w[1][t][2][e]:0,w[x][t][2][e]=o&gt;0?2*(w[x][t][1][e]-w[x-1][t][1][e])/o-w[x-1][t][2][e]:0}for(let t=0;t&lt;s;++t){w[t][0][3]=[],w[t][g][3]=[];for(let e=0;e&lt;4;++e)n=i(w[t][1][0],w[t][0][0]),o=i(w[t][g][0],w[t][g-1][0]),w[t][0][3][e]=n&gt;0?2*(w[t][1][1][e]-w[t][0][1][e])/n-w[t][1][3][e]:0,w[t][g][3][e]=o&gt;0?2*(w[t][g][1][e]-w[t][g-1][1][e])/o-w[t][g-1][3][e]:0}for(let s=0;s&lt;x;++s)for(let r=0;r&lt;g;++r){let n=i(w[s][r][0],w[s+1][r][0]),o=i(w[s][r+1][0],w[s+1][r+1][0]),c=i(w[s][r][0],w[s][r+1][0]),x=i(w[s+1][r][0],w[s+1][r+1][0]),g=[[],[],[],[]];for(let t=0;t&lt;4;++t){(d=[])[0]=w[s][r][1][t],d[1]=w[s+1][r][1][t],d[2]=w[s][r+1][1][t],d[3]=w[s+1][r+1][1][t],d[4]=w[s][r][2][t]*n,d[5]=w[s+1][r][2][t]*n,d[6]=w[s][r+1][2][t]*o,d[7]=w[s+1][r+1][2][t]*o,d[8]=w[s][r][3][t]*c,d[9]=w[s+1][r][3][t]*x,d[10]=w[s][r+1][3][t]*c,d[11]=w[s+1][r+1][3][t]*x,d[12]=0,d[13]=0,d[14]=0,d[15]=0,u=f(d);for(let e=0;e&lt;9;++e){g[t][e]=[];for(let s=0;s&lt;9;++s)g[t][e][s]=p(u,e/8,s/8),g[t][e][s]&gt;255?g[t][e][s]=255:g[t][e][s]&lt;0&amp;&amp;(g[t][e][s]=0)}}h=[];for(let t=3*s,e=3*s+4;t&lt;e;++t)h.push(this.nodes[t].slice(3*r,3*r+4));l=y(h);for(let s=0;s&lt;8;++s)for(let r=0;r&lt;8;++r)(a=new m(l[s][r],[[[g[0][s][r],g[1][s][r],g[2][s][r],g[3][s][r]],[g[0][s][r+1],g[1][s][r+1],g[2][s][r+1],g[3][s][r+1]]],[[g[0][s+1][r],g[1][s+1][r],g[2][s+1][r],g[3][s+1][r]],[g[0][s+1][r+1],g[1][s+1][r+1],g[2][s+1][r+1],g[3][s+1][r+1]]]])).paint(t,e)}}}transform(t){if(t instanceof x)for(let e=0,s=this.nodes.length;e&lt;s;++e)for(let s=0,r=this.nodes[0].length;s&lt;r;++s)this.nodes[e][s]=this.nodes[e][s].add(t);else if(t instanceof g)for(let e=0,s=this.nodes.length;e&lt;s;++e)for(let s=0,r=this.nodes[0].length;s&lt;r;++s)this.nodes[e][s]=this.nodes[e][s].transform(t)}scale(t){for(let e=0,s=this.nodes.length;e&lt;s;++e)for(let s=0,r=this.nodes[0].length;s&lt;r;++s)this.nodes[e][s]=this.nodes[e][s].scale(t)}}document.querySelectorAll(&quot;rect,circle,ellipse,path,text&quot;).forEach((r,n)=&gt;{let o=r.getAttribute(&quot;id&quot;);o||(o=&quot;patchjs_shape&quot;+n,r.setAttribute(&quot;id&quot;,o));const i=r.style.fill.match(/^url\(\s*&quot;?\s*#([^\s&quot;]+)&quot;?\s*\)/),a=r.style.stroke.match(/^url\(\s*&quot;?\s*#([^\s&quot;]+)&quot;?\s*\)/);if(i&amp;&amp;i[1]){const a=document.getElementById(i[1]);if(a&amp;&amp;&quot;meshgradient&quot;===a.nodeName){const i=r.getBBox();let l=document.createElementNS(s,&quot;canvas&quot;);d(l,{width:i.width,height:i.height});const c=l.getContext(&quot;2d&quot;);let u=c.createImageData(i.width,i.height);const f=new b(a);&quot;objectBoundingBox&quot;===a.getAttribute(&quot;gradientUnits&quot;)&amp;&amp;f.scale(new x(i.width,i.height));const p=a.getAttribute(&quot;gradientTransform&quot;);null!=p&amp;&amp;f.transform(h(p)),&quot;userSpaceOnUse&quot;===a.getAttribute(&quot;gradientUnits&quot;)&amp;&amp;f.transform(new x(-i.x,-i.y)),f.paintMesh(u.data,l.width),c.putImageData(u,0,0);const y=document.createElementNS(t,&quot;image&quot;);d(y,{width:i.width,height:i.height,x:i.x,y:i.y});let g=l.toDataURL();y.setAttributeNS(e,&quot;xlink:href&quot;,g),r.parentNode.insertBefore(y,r),r.style.fill=&quot;none&quot;;const w=document.createElementNS(t,&quot;use&quot;);w.setAttributeNS(e,&quot;xlink:href&quot;,&quot;#&quot;+o);const m=&quot;patchjs_clip&quot;+n,M=document.createElementNS(t,&quot;clipPath&quot;);M.setAttribute(&quot;id&quot;,m),M.appendChild(w),r.parentElement.insertBefore(M,r),y.setAttribute(&quot;clip-path&quot;,&quot;url(#&quot;+m+&quot;)&quot;),u=null,l=null,g=null}}if(a&amp;&amp;a[1]){const o=document.getElementById(a[1]);if(o&amp;&amp;&quot;meshgradient&quot;===o.nodeName){const i=parseFloat(r.style.strokeWidth.slice(0,-2))*(parseFloat(r.style.strokeMiterlimit)||parseFloat(r.getAttribute(&quot;stroke-miterlimit&quot;))||1),a=r.getBBox(),l=Math.trunc(a.width+i),c=Math.trunc(a.height+i),u=Math.trunc(a.x-i/2),f=Math.trunc(a.y-i/2);let p=document.createElementNS(s,&quot;canvas&quot;);d(p,{width:l,height:c});const y=p.getContext(&quot;2d&quot;);let g=y.createImageData(l,c);const w=new b(o);&quot;objectBoundingBox&quot;===o.getAttribute(&quot;gradientUnits&quot;)&amp;&amp;w.scale(new x(l,c));const m=o.getAttribute(&quot;gradientTransform&quot;);null!=m&amp;&amp;w.transform(h(m)),&quot;userSpaceOnUse&quot;===o.getAttribute(&quot;gradientUnits&quot;)&amp;&amp;w.transform(new x(-u,-f)),w.paintMesh(g.data,p.width),y.putImageData(g,0,0);const M=document.createElementNS(t,&quot;image&quot;);d(M,{width:l,height:c,x:0,y:0});let S=p.toDataURL();M.setAttributeNS(e,&quot;xlink:href&quot;,S);const k=&quot;pattern_clip&quot;+n,A=document.createElementNS(t,&quot;pattern&quot;);d(A,{id:k,patternUnits:&quot;userSpaceOnUse&quot;,width:l,height:c,x:u,y:f}),A.appendChild(M),o.parentNode.appendChild(A),r.style.stroke=&quot;url(#&quot;+k+&quot;)&quot;,g=null,p=null,S=null}}})}();
</script></svg>
